<svg width="148" height="149" viewBox="0 0 148 149" fill="none" xmlns="http://www.w3.org/2000/svg">
<g filter="url(#filter0_d_1_107)">
<circle cx="74" cy="60.2529" r="30" fill="#F53838"/>
<circle cx="74" cy="60.2529" r="29" stroke="#F53838" stroke-width="2"/>
</g>
<path d="M65.25 59.003H80.075L75.5375 53.553C75.3253 53.2978 75.2232 52.9687 75.2537 52.6381C75.2842 52.3076 75.4447 52.0027 75.7 51.7905C75.9553 51.5784 76.2844 51.4763 76.6149 51.5068C76.9454 51.5372 77.2503 51.6978 77.4625 51.953L83.7125 59.453C83.7545 59.5127 83.7922 59.5754 83.825 59.6405C83.825 59.703 83.825 59.7405 83.9125 59.803C83.9692 59.9464 83.9988 60.0989 84 60.253C83.9988 60.4071 83.9692 60.5597 83.9125 60.703C83.9125 60.7655 83.9125 60.803 83.825 60.8655C83.7922 60.9307 83.7545 60.9934 83.7125 61.053L77.4625 68.553C77.345 68.6941 77.1978 68.8076 77.0314 68.8854C76.8651 68.9632 76.6836 69.0033 76.5 69.003C76.2079 69.0036 75.9249 68.9019 75.7 68.7155C75.5734 68.6106 75.4688 68.4817 75.3921 68.3363C75.3154 68.1908 75.2682 68.0317 75.2531 67.868C75.238 67.7043 75.2553 67.5392 75.3041 67.3822C75.3529 67.2252 75.4322 67.0793 75.5375 66.953L80.075 61.503H65.25C64.9185 61.503 64.6005 61.3713 64.3661 61.1369C64.1317 60.9025 64 60.5846 64 60.253C64 59.9215 64.1317 59.6036 64.3661 59.3691C64.6005 59.1347 64.9185 59.003 65.25 59.003Z" fill="white"/>
<defs>
<filter id="filter0_d_1_107" x="0" y="0.25293" width="148" height="148" filterUnits="userSpaceOnUse" color-interpolation-filters="sRGB">
<feFlood flood-opacity="0" result="BackgroundImageFix"/>
<feColorMatrix in="SourceAlpha" type="matrix" values="0 0 0 0 0 0 0 0 0 0 0 0 0 0 0 0 0 0 127 0" result="hardAlpha"/>
<feOffset dy="14"/>
<feGaussianBlur stdDeviation="22"/>
<feColorMatrix type="matrix" values="0 0 0 0 0.0561111 0 0 0 0 0.0777333 0 0 0 0 0.133333 0 0 0 0.08 0"/>
<feBlend mode="normal" in2="BackgroundImageFix" result="effect1_dropShadow_1_107"/>
<feBlend mode="normal" in="SourceGraphic" in2="effect1_dropShadow_1_107" result="shape"/>
</filter>
</defs>
</svg>
