<svg width="60" height="61" viewBox="0 0 60 61" fill="none" xmlns="http://www.w3.org/2000/svg">
<circle cx="30" cy="30.2529" r="29" stroke="#F53838" stroke-width="2"/>
<path d="M38.75 29.003H23.925L28.4625 23.553C28.6747 23.2978 28.7768 22.9687 28.7463 22.6381C28.7158 22.3076 28.5553 22.0027 28.3 21.7905C28.0447 21.5784 27.7156 21.4763 27.3851 21.5068C27.0546 21.5372 26.7497 21.6978 26.5375 21.953L20.2875 29.453C20.2455 29.5127 20.2078 29.5754 20.175 29.6405C20.175 29.703 20.175 29.7405 20.0875 29.803C20.0308 29.9464 20.0012 30.0989 20 30.253C20.0012 30.4071 20.0308 30.5597 20.0875 30.703C20.0875 30.7655 20.0875 30.803 20.175 30.8655C20.2078 30.9307 20.2455 30.9934 20.2875 31.053L26.5375 38.553C26.655 38.6941 26.8022 38.8076 26.9686 38.8854C27.1349 38.9632 27.3164 39.0033 27.5 39.003C27.7921 39.0036 28.0751 38.9019 28.3 38.7155C28.4266 38.6106 28.5312 38.4817 28.6079 38.3363C28.6846 38.1908 28.7318 38.0317 28.7469 37.868C28.762 37.7043 28.7447 37.5392 28.6959 37.3822C28.6471 37.2252 28.5678 37.0793 28.4625 36.953L23.925 31.503H38.75C39.0815 31.503 39.3995 31.3713 39.6339 31.1369C39.8683 30.9025 40 30.5846 40 30.253C40 29.9215 39.8683 29.6036 39.6339 29.3691C39.3995 29.1347 39.0815 29.003 38.75 29.003Z" fill="#F53838"/>
</svg>
