<svg width="146" height="167" viewBox="0 0 146 167" fill="none" xmlns="http://www.w3.org/2000/svg">
<path fill-rule="evenodd" clip-rule="evenodd" d="M52.0248 40.6874C52.6816 39.2616 53.4508 38.1541 53.9592 37.5701C53.9692 38.9475 53.7569 40.183 53.4282 41.2567C54.4396 41.7447 55.4906 42.4278 56.4949 43.3705C55.721 43.3471 54.3856 43.1596 52.8931 42.6735C52.2051 44.1907 51.3353 45.2383 50.7651 45.726C50.8038 44.4492 51.0724 43.2255 51.4498 42.1216C50.3832 41.649 49.3025 41.0152 48.339 40.1764C49.0842 40.0891 50.4438 40.1621 52.0248 40.6874Z" fill="url(#paint0_linear_1_610)"/>
<path fill-rule="evenodd" clip-rule="evenodd" d="M46.8334 26.4047C47.2705 25.4557 47.7825 24.7185 48.1209 24.3298C48.1276 25.2466 47.9863 26.0689 47.7675 26.7837C48.4407 27.1084 49.1403 27.5632 49.8087 28.1906C49.2936 28.1751 48.4048 28.0503 47.4113 27.7267C46.9533 28.7366 46.3744 29.4339 45.9949 29.7586C46.0206 28.9087 46.1994 28.0941 46.4506 27.3594C45.7407 27.0448 45.0213 26.6229 44.3799 26.0646C44.876 26.0064 45.781 26.055 46.8334 26.4047Z" fill="url(#paint1_linear_1_610)"/>
<path fill-rule="evenodd" clip-rule="evenodd" d="M32.7828 12.2071C33.4395 10.7814 34.2088 9.67383 34.7171 9.08987C34.7271 10.4672 34.5148 11.7027 34.1861 12.7765C35.1975 13.2644 36.2486 13.9475 37.2528 14.8902C36.479 14.8668 35.1436 14.6794 33.651 14.1932C32.963 15.7105 32.0933 16.7581 31.5231 17.2458C31.5617 15.9689 31.8304 14.7452 32.2078 13.6413C31.1412 13.1687 30.0604 12.5349 29.0969 11.6962C29.8422 11.6088 31.2018 11.6818 32.7828 12.2071Z" fill="url(#paint2_linear_1_610)"/>
<path fill-rule="evenodd" clip-rule="evenodd" d="M30.5564 44.1723C31.5226 42.0746 32.6544 40.4452 33.4023 39.5861C33.417 41.6125 33.1046 43.4302 32.621 45.0099C34.1091 45.7278 35.6554 46.7329 37.1329 48.1198C35.9944 48.0853 34.0297 47.8095 31.8338 47.0944C30.8216 49.3265 29.542 50.8678 28.7031 51.5853C28.7599 49.7068 29.1552 47.9064 29.7104 46.2824C28.1412 45.587 26.5512 44.6546 25.1337 43.4206C26.2301 43.292 28.2304 43.3994 30.5564 44.1723Z" fill="url(#paint3_linear_1_610)"/>
<circle cx="36.3693" cy="29.816" r="0.846528" transform="rotate(21.3865 36.3693 29.816)" fill="#2F235A"/>
<circle cx="57.3295" cy="19.1721" r="0.846528" transform="rotate(21.3865 57.3295 19.1721)" fill="#FE9076"/>
<circle cx="17.0945" cy="23.7964" r="0.846528" transform="rotate(21.3865 17.0945 23.7964)" fill="#FFA400"/>
<circle cx="35.2724" cy="57.8817" r="0.846528" transform="rotate(21.3865 35.2724 57.8817)" fill="#23BB86"/>
<path d="M56.6866 15.1261C55.863 11.9806 52.8904 4.78678 47.5884 1.17525" stroke="#FE9076" stroke-width="0.736823" stroke-linecap="round"/>
<path d="M14.5961 20.3813C12.5468 17.8569 6.86817 12.5333 0.54788 11.4342" stroke="#FFA400" stroke-width="0.736823" stroke-linecap="round"/>
<path d="M31.6704 59.1119C29.8543 59.7743 25.2825 61.8847 21.5242 65.0281" stroke="#23BB86" stroke-width="0.736823" stroke-linecap="round"/>
<path fill-rule="evenodd" clip-rule="evenodd" d="M93.9752 40.6874C93.3184 39.2616 92.5492 38.1541 92.0408 37.5701C92.0308 38.9475 92.2431 40.183 92.5718 41.2567C91.5604 41.7447 90.5094 42.4278 89.5051 43.3705C90.279 43.3471 91.6144 43.1596 93.1069 42.6735C93.7949 44.1907 94.6647 45.2383 95.2349 45.726C95.1962 44.4492 94.9276 43.2255 94.5502 42.1216C95.6168 41.649 96.6975 41.0152 97.661 40.1764C96.9158 40.0891 95.5562 40.1621 93.9752 40.6874Z" fill="url(#paint4_linear_1_610)"/>
<path fill-rule="evenodd" clip-rule="evenodd" d="M99.1666 26.4047C98.7295 25.4557 98.2175 24.7185 97.8791 24.3298C97.8724 25.2466 98.0137 26.0689 98.2325 26.7837C97.5593 27.1084 96.8597 27.5632 96.1913 28.1906C96.7064 28.1751 97.5952 28.0503 98.5887 27.7267C99.0467 28.7366 99.6256 29.4339 100.005 29.7586C99.9794 28.9087 99.8006 28.0941 99.5494 27.3594C100.259 27.0448 100.979 26.6229 101.62 26.0646C101.124 26.0064 100.219 26.055 99.1666 26.4047Z" fill="url(#paint5_linear_1_610)"/>
<path fill-rule="evenodd" clip-rule="evenodd" d="M113.217 12.2071C112.56 10.7814 111.791 9.67383 111.283 9.08987C111.273 10.4672 111.485 11.7027 111.814 12.7765C110.802 13.2644 109.751 13.9475 108.747 14.8902C109.521 14.8668 110.856 14.6794 112.349 14.1932C113.037 15.7105 113.907 16.7581 114.477 17.2458C114.438 15.9689 114.17 14.7452 113.792 13.6413C114.859 13.1687 115.94 12.5349 116.903 11.6962C116.158 11.6088 114.798 11.6818 113.217 12.2071Z" fill="url(#paint6_linear_1_610)"/>
<path fill-rule="evenodd" clip-rule="evenodd" d="M115.444 44.1723C114.477 42.0746 113.346 40.4452 112.598 39.5861C112.583 41.6125 112.895 43.4302 113.379 45.0099C111.891 45.7278 110.345 46.7329 108.867 48.1198C110.006 48.0853 111.97 47.8095 114.166 47.0944C115.178 49.3265 116.458 50.8678 117.297 51.5853C117.24 49.7068 116.845 47.9064 116.29 46.2824C117.859 45.587 119.449 44.6546 120.866 43.4206C119.77 43.292 117.77 43.3994 115.444 44.1723Z" fill="url(#paint7_linear_1_610)"/>
<circle cx="0.846528" cy="0.846528" r="0.846528" transform="matrix(-0.931142 0.364658 0.364658 0.931142 110.11 28.7191)" fill="#2F235A"/>
<circle cx="0.846528" cy="0.846528" r="0.846528" transform="matrix(-0.931142 0.364658 0.364658 0.931142 89.15 18.0752)" fill="#FE9076"/>
<circle cx="0.846528" cy="0.846528" r="0.846528" transform="matrix(-0.931142 0.364658 0.364658 0.931142 129.385 22.6995)" fill="#FFA400"/>
<circle cx="0.846528" cy="0.846528" r="0.846528" transform="matrix(-0.931142 0.364658 0.364658 0.931142 111.207 56.7848)" fill="#23BB86"/>
<path d="M89.3134 15.1261C90.137 11.9806 93.1096 4.78678 98.4116 1.17525" stroke="#FE9076" stroke-width="0.736823" stroke-linecap="round"/>
<path d="M131.404 20.3813C133.453 17.8569 139.132 12.5333 145.452 11.4342" stroke="#FFA400" stroke-width="0.736823" stroke-linecap="round"/>
<path d="M114.33 59.1119C116.146 59.7743 120.717 61.8847 124.476 65.0281" stroke="#23BB86" stroke-width="0.736823" stroke-linecap="round"/>
<rect x="26.8154" y="104.439" width="89.8505" height="62.1103" fill="url(#paint8_linear_1_610)"/>
<mask id="mask0_1_610" style="mask-type:alpha" maskUnits="userSpaceOnUse" x="26" y="104" width="91" height="63">
<rect x="26.8154" y="104.439" width="89.8505" height="62.1103" fill="#C4C4C4"/>
</mask>
<g mask="url(#mask0_1_610)">
<path d="M31.0669 102.858L92.2489 102.858L78.4203 126.869L17.2383 126.869L31.0669 102.858Z" fill="black" fill-opacity="0.07"/>
<rect x="87.9174" y="104.439" width="89.8505" height="62.1103" fill="url(#paint9_linear_1_610)"/>
</g>
<path d="M26.736 104.439L87.918 104.439L76.0995 124.162L14.9175 124.162L26.736 104.439Z" fill="url(#paint10_linear_1_610)"/>
<mask id="mask1_1_610" style="mask-type:alpha" maskUnits="userSpaceOnUse" x="87" y="104" width="30" height="63">
<rect x="87.918" y="104.439" width="28.7479" height="62.1103" fill="#C4C4C4"/>
</mask>
<g mask="url(#mask1_1_610)">
<path d="M113.166 104.336L84.3731 104.336L97.9024 127.043L126.695 127.043L113.166 104.336Z" fill="black" fill-opacity="0.07"/>
</g>
<path d="M116.711 104.439L87.918 104.439L99.7365 124.162L128.529 124.162L116.711 104.439Z" fill="url(#paint11_linear_1_610)"/>
<circle cx="56.7434" cy="88.6195" r="8.49082" fill="url(#paint12_linear_1_610)"/>
<circle cx="89.3727" cy="67.6864" r="8.20473" fill="url(#paint13_linear_1_610)"/>
<circle cx="58.6179" cy="57.1029" r="6.61631" fill="url(#paint14_linear_1_610)"/>
<circle cx="76.9911" cy="41.9936" r="5.98519" fill="url(#paint15_linear_1_610)"/>
<circle cx="65.2343" cy="25.3705" r="4.6365" fill="url(#paint16_linear_1_610)"/>
<circle cx="73.201" cy="66.0365" r="1.65" fill="#FFA800" fill-opacity="0.23"/>
<circle cx="100.642" cy="52.1366" r="1.65" fill="#FFA800" fill-opacity="0.23"/>
<circle cx="102.292" cy="25.3705" r="1.65" fill="#FFA800" fill-opacity="0.23"/>
<circle cx="46.6025" cy="28.357" r="1.65" fill="#FFA800" fill-opacity="0.23"/>
<circle cx="80.2009" cy="92.284" r="1.65" fill="#FFA800" fill-opacity="0.23"/>
<circle cx="38.7964" cy="62.7364" r="1.65" fill="#FFA800" fill-opacity="0.23"/>
<path d="M116.878 104.733H26.7443L12.902 19.3853H133.5L116.878 104.733Z" fill="url(#paint17_linear_1_610)"/>
<defs>
<linearGradient id="paint0_linear_1_610" x1="53.7093" y1="38.4735" x2="50.7103" y2="46.1313" gradientUnits="userSpaceOnUse">
<stop stop-color="#FFE89E"/>
<stop offset="1" stop-color="#FFBF1A"/>
</linearGradient>
<linearGradient id="paint1_linear_1_610" x1="47.9546" y1="24.9311" x2="45.9583" y2="30.0284" gradientUnits="userSpaceOnUse">
<stop stop-color="#FFE89E"/>
<stop offset="1" stop-color="#FFBF1A"/>
</linearGradient>
<linearGradient id="paint2_linear_1_610" x1="34.4672" y1="9.99323" x2="31.4682" y2="17.6511" gradientUnits="userSpaceOnUse">
<stop stop-color="#FFE89E"/>
<stop offset="1" stop-color="#FFBF1A"/>
</linearGradient>
<linearGradient id="paint3_linear_1_610" x1="33.0346" y1="40.9151" x2="28.6224" y2="52.1816" gradientUnits="userSpaceOnUse">
<stop stop-color="#FFE89E"/>
<stop offset="1" stop-color="#FFBF1A"/>
</linearGradient>
<linearGradient id="paint4_linear_1_610" x1="92.2907" y1="38.4735" x2="95.2897" y2="46.1313" gradientUnits="userSpaceOnUse">
<stop stop-color="#FFE89E"/>
<stop offset="1" stop-color="#FFBF1A"/>
</linearGradient>
<linearGradient id="paint5_linear_1_610" x1="98.0454" y1="24.9311" x2="100.042" y2="30.0284" gradientUnits="userSpaceOnUse">
<stop stop-color="#FFE89E"/>
<stop offset="1" stop-color="#FFBF1A"/>
</linearGradient>
<linearGradient id="paint6_linear_1_610" x1="111.533" y1="9.99323" x2="114.532" y2="17.6511" gradientUnits="userSpaceOnUse">
<stop stop-color="#FFE89E"/>
<stop offset="1" stop-color="#FFBF1A"/>
</linearGradient>
<linearGradient id="paint7_linear_1_610" x1="112.965" y1="40.9151" x2="117.378" y2="52.1816" gradientUnits="userSpaceOnUse">
<stop stop-color="#FFE89E"/>
<stop offset="1" stop-color="#FFBF1A"/>
</linearGradient>
<linearGradient id="paint8_linear_1_610" x1="56.8297" y1="92.9403" x2="21.0194" y2="191.572" gradientUnits="userSpaceOnUse">
<stop stop-color="#FFD481"/>
<stop offset="1" stop-color="#FA620C"/>
</linearGradient>
<linearGradient id="paint9_linear_1_610" x1="42.1452" y1="100.5" x2="150.825" y2="216.639" gradientUnits="userSpaceOnUse">
<stop stop-color="#FFD481"/>
<stop offset="0.83311" stop-color="#FA620C"/>
</linearGradient>
<linearGradient id="paint10_linear_1_610" x1="27.9951" y1="97.3904" x2="25.0874" y2="139.413" gradientUnits="userSpaceOnUse">
<stop stop-color="#FFD481"/>
<stop offset="1" stop-color="#FA620C"/>
</linearGradient>
<linearGradient id="paint11_linear_1_610" x1="121.254" y1="97.3904" x2="126.426" y2="138.971" gradientUnits="userSpaceOnUse">
<stop stop-color="#FFD481"/>
<stop offset="1" stop-color="#FA620C"/>
</linearGradient>
<linearGradient id="paint12_linear_1_610" x1="57.3863" y1="77.3264" x2="55.7712" y2="100.245" gradientUnits="userSpaceOnUse">
<stop stop-color="#FF9F81"/>
<stop offset="1" stop-color="#F53838"/>
</linearGradient>
<linearGradient id="paint13_linear_1_610" x1="89.994" y1="56.7739" x2="88.4333" y2="78.9204" gradientUnits="userSpaceOnUse">
<stop stop-color="#FF9F81"/>
<stop offset="1" stop-color="#F53838"/>
</linearGradient>
<linearGradient id="paint14_linear_1_610" x1="59.1189" y1="48.303" x2="57.8604" y2="66.162" gradientUnits="userSpaceOnUse">
<stop stop-color="#FF9F81"/>
<stop offset="1" stop-color="#F53838"/>
</linearGradient>
<linearGradient id="paint15_linear_1_610" x1="77.4443" y1="34.0331" x2="76.3058" y2="50.1886" gradientUnits="userSpaceOnUse">
<stop stop-color="#FF9F81"/>
<stop offset="1" stop-color="#F53838"/>
</linearGradient>
<linearGradient id="paint16_linear_1_610" x1="65.5854" y1="19.2038" x2="64.7034" y2="31.7188" gradientUnits="userSpaceOnUse">
<stop stop-color="#FF9F81"/>
<stop offset="1" stop-color="#F53838"/>
</linearGradient>
<linearGradient id="paint17_linear_1_610" x1="72.21" y1="19.3853" x2="72.21" y2="200.709" gradientUnits="userSpaceOnUse">
<stop stop-color="white" stop-opacity="0"/>
<stop offset="1" stop-color="#FE9277"/>
</linearGradient>
</defs>
</svg>
